#tb 0: 1001/30000
#media_type 0: video
#codec_id 0: rawvideo
#dimensions 0: 128x128
#sar 0: 4/3
0,          1,          1,        1,    24576, 0x002ceadf
0,          2,          2,        1,    24576, 0x506351a7
0,          3,          3,        1,    24576, 0xe08a39e6
0,          4,          4,        1,    24576, 0x01841d87
0,          5,          5,        1,    24576, 0x4ef228cb
